<?xml version="1.0" encoding="utf-8" standalone="no"?>
<!DOCTYPE svg PUBLIC "-//W3C//DTD SVG 1.1//EN"
  "http://www.w3.org/Graphics/SVG/1.1/DTD/svg11.dtd">
<!-- Created with matplotlib (http://matplotlib.sourceforge.net/) -->
<svg height="359pt" version="1.1" viewBox="0 0 460 359" width="460pt" xmlns="http://www.w3.org/2000/svg" xmlns:xlink="http://www.w3.org/1999/xlink">
 <defs>
  <style type="text/css">
*{stroke-linecap:square;stroke-linejoin:round;}
  </style>
 </defs>
 <g id="figure_1">
  <g id="patch_1">
   <path d="
M0 360
L460.8 360
L460.8 0
L0 0
z
" style="fill:#ffffff;"/>
  </g>
  <g id="patch_2">
   <path d="
M7.2 352.8
L453.6 352.8
L453.6 7.2
L7.2 7.2
z
" style="fill:#ffffff;"/>
  </g>
  <g id="axes_1">
   <g id="Poly3DCollection_1">
    <defs>
     <path d="
M293.208 -146.604
L195.7 -168.903
L194.738 -244.904
L294.576 -223.654
z
" id="C0_0_dccade579b"/>
    </defs>
    <g clip-path="url(#p5bee155178)">
     <use style="fill:none;stroke:#808080;stroke-dasharray:1.000000,3.000000;stroke-dashoffset:0.0;stroke-linecap:butt;" x="0" xlink:href="#C0_0_dccade579b" y="360.0"/>
    </g>
   </g>
   <g id="Poly3DCollection_2">
    <defs>
     <path d="
M136.605 -129.695
L236.432 -105.752
L293.208 -146.604
L195.7 -168.903
z
" id="C1_0_1a8f1edcb4"/>
    </defs>
    <g clip-path="url(#p5bee155178)">
     <use style="fill:none;stroke:#808080;stroke-dasharray:1.000000,3.000000;stroke-dashoffset:0.0;stroke-linecap:butt;" x="0" xlink:href="#C1_0_1a8f1edcb4" y="360.0"/>
    </g>
   </g>
   <g id="Poly3DCollection_3">
    <defs>
     <path d="
M195.7 -168.903
L136.605 -129.695
L134.162 -207.527
L194.738 -244.904
z
" id="C2_0_f75cc17c70"/>
    </defs>
    <g clip-path="url(#p5bee155178)">
     <use style="fill:none;stroke:#808080;stroke-dasharray:1.000000,3.000000;stroke-dashoffset:0.0;stroke-linecap:butt;" x="0" xlink:href="#C2_0_f75cc17c70" y="360.0"/>
    </g>
   </g>
   <g id="Poly3DCollection_4">
    <defs>
     <path d="
M394.773 -123.377
L293.208 -146.604
L294.576 -223.654
L398.67 -201.498
z
" id="C3_0_6475b06a6d"/>
    </defs>
    <g clip-path="url(#p5bee155178)">
     <use style="fill:none;stroke:#808080;stroke-dasharray:1.000000,3.000000;stroke-dashoffset:0.0;stroke-linecap:butt;" x="0" xlink:href="#C3_0_6475b06a6d" y="360.0"/>
    </g>
   </g>
   <g id="text_1">
    <g id="patch_3">
     <path d="
M75.2804 293.674
L91.2835 293.674
L91.2835 274.546
L75.2804 274.546
z
" style="fill:#ffffff;stroke:#ffffff;"/>
    </g>
    <!-- 0 -->
    <defs>
     <path d="
M46 36.5312
Q46 50.2031 43.4375 55.7812
Q40.875 61.375 34.8125 61.375
Q28.7656 61.375 26.1719 55.7812
Q23.5781 50.2031 23.5781 36.5312
Q23.5781 22.7031 26.1719 17.0312
Q28.7656 11.375 34.8125 11.375
Q40.8281 11.375 43.4062 17.0312
Q46 22.7031 46 36.5312
M64.7969 36.375
Q64.7969 18.2656 56.9844 8.42188
Q49.1719 -1.42188 34.8125 -1.42188
Q20.4062 -1.42188 12.5938 8.42188
Q4.78125 18.2656 4.78125 36.375
Q4.78125 54.5469 12.5938 64.375
Q20.4062 74.2188 34.8125 74.2188
Q49.1719 74.2188 56.9844 64.375
Q64.7969 54.5469 64.7969 36.375" id="BitstreamVeraSans-Bold-30"/>
    </defs>
    <g transform="translate(77.2803700136 291.389272358)scale(0.2 -0.2)">
     <use xlink:href="#BitstreamVeraSans-Bold-30"/>
    </g>
   </g>
   <g id="text_2">
    <g id="patch_4">
     <path d="
M177.585 318.989
L191.869 318.989
L191.869 300.408
L177.585 300.408
z
" style="fill:#ffffff;stroke:#ffffff;"/>
    </g>
    <!-- 1 -->
    <defs>
     <path d="
M11.7188 12.9844
L28.3281 12.9844
L28.3281 60.1094
L11.2812 56.5938
L11.2812 69.3906
L28.2188 72.9062
L46.0938 72.9062
L46.0938 12.9844
L62.7031 12.9844
L62.7031 0
L11.7188 0
z
" id="BitstreamVeraSans-Bold-31"/>
    </defs>
    <g transform="translate(179.58451713 316.989326908)scale(0.2 -0.2)">
     <use xlink:href="#BitstreamVeraSans-Bold-31"/>
    </g>
   </g>
   <g id="text_3">
    <g id="patch_5">
     <path d="
M284.475 346.274
L299.071 346.274
L299.071 327.43
L284.475 327.43
z
" style="fill:#ffffff;stroke:#ffffff;"/>
    </g>
    <!-- 2 -->
    <defs>
     <path d="
M28.8125 13.8125
L60.8906 13.8125
L60.8906 0
L7.90625 0
L7.90625 13.8125
L34.5156 37.3125
Q38.0938 40.5312 39.7969 43.6094
Q41.5 46.6875 41.5 50
Q41.5 55.125 38.0625 58.25
Q34.625 61.375 28.9062 61.375
Q24.5156 61.375 19.2812 59.5
Q14.0625 57.625 8.10938 53.9062
L8.10938 69.9219
Q14.4531 72.0156 20.6562 73.1094
Q26.8594 74.2188 32.8125 74.2188
Q45.9062 74.2188 53.1562 68.4531
Q60.4062 62.7031 60.4062 52.3906
Q60.4062 46.4375 57.3281 41.2812
Q54.25 36.1406 44.3906 27.4844
z
" id="BitstreamVeraSans-Bold-32"/>
    </defs>
    <g transform="translate(286.474560643 344.273699033)scale(0.2 -0.2)">
     <use xlink:href="#BitstreamVeraSans-Bold-32"/>
    </g>
   </g>
   <g id="text_4">
    <g id="patch_6">
     <path d="
M138.61 251.41
L153.598 251.41
L153.598 232.282
L138.61 232.282
z
" style="fill:#ffffff;stroke:#ffffff;"/>
    </g>
    <!-- 3 -->
    <defs>
     <path d="
M46.5781 39.3125
Q53.9531 37.4062 57.7812 32.6875
Q61.625 27.9844 61.625 20.7031
Q61.625 9.85938 53.3125 4.21875
Q45.0156 -1.42188 29.1094 -1.42188
Q23.4844 -1.42188 17.8438 -0.515625
Q12.2031 0.390625 6.6875 2.20312
L6.6875 16.7031
Q11.9688 14.0625 17.1562 12.7188
Q22.3594 11.375 27.3906 11.375
Q34.8594 11.375 38.8438 13.9531
Q42.8281 16.5469 42.8281 21.3906
Q42.8281 26.375 38.75 28.9375
Q34.6719 31.5 26.7031 31.5
L19.1875 31.5
L19.1875 43.6094
L27.0938 43.6094
Q34.1875 43.6094 37.6406 45.8281
Q41.1094 48.0469 41.1094 52.5938
Q41.1094 56.7812 37.7344 59.0781
Q34.375 61.375 28.2188 61.375
Q23.6875 61.375 19.0469 60.3438
Q14.4062 59.3281 9.8125 57.3281
L9.8125 71.0938
Q15.375 72.6562 20.8438 73.4375
Q26.3125 74.2188 31.5938 74.2188
Q45.7969 74.2188 52.8438 69.5469
Q59.9062 64.8906 59.9062 55.5156
Q59.9062 49.125 56.5312 45.0469
Q53.1719 40.9688 46.5781 39.3125" id="BitstreamVeraSans-Bold-33"/>
    </defs>
    <g transform="translate(140.610042662 249.125258558)scale(0.2 -0.2)">
     <use xlink:href="#BitstreamVeraSans-Bold-33"/>
    </g>
   </g>
   <g id="text_5">
    <g id="patch_7">
     <path d="
M238.509 274.887
L254.606 274.887
L254.606 256.305
L238.509 256.305
z
" style="fill:#ffffff;stroke:#ffffff;"/>
    </g>
    <!-- 4 -->
    <defs>
     <path d="
M36.8125 57.4219
L16.2188 26.9062
L36.8125 26.9062
z

M33.6875 72.9062
L54.5938 72.9062
L54.5938 26.9062
L64.9844 26.9062
L64.9844 13.2812
L54.5938 13.2812
L54.5938 0
L36.8125 0
L36.8125 13.2812
L4.5 13.2812
L4.5 29.3906
z
" id="BitstreamVeraSans-Bold-34"/>
    </defs>
    <g transform="translate(240.509354952 272.886637791)scale(0.2 -0.2)">
     <use xlink:href="#BitstreamVeraSans-Bold-34"/>
    </g>
   </g>
   <g id="text_6">
    <g id="patch_8">
     <path d="
M342.719 300.232
L357.694 300.232
L357.694 281.366
L342.719 281.366
z
" style="fill:#ffffff;stroke:#ffffff;"/>
    </g>
    <!-- 5 -->
    <defs>
     <path d="
M10.5938 72.9062
L57.3281 72.9062
L57.3281 59.0781
L25.5938 59.0781
L25.5938 47.7969
Q27.7344 48.3906 29.9062 48.7031
Q32.0781 49.0312 34.4219 49.0312
Q47.75 49.0312 55.1719 42.3594
Q62.5938 35.6875 62.5938 23.7812
Q62.5938 11.9688 54.5156 5.26562
Q46.4375 -1.42188 32.0781 -1.42188
Q25.875 -1.42188 19.7969 -0.21875
Q13.7188 0.984375 7.71875 3.42188
L7.71875 18.2188
Q13.6719 14.7969 19.0156 13.0781
Q24.3594 11.375 29.1094 11.375
Q35.9375 11.375 39.8594 14.7188
Q43.7969 18.0625 43.7969 23.7812
Q43.7969 29.5469 39.8594 32.8594
Q35.9375 36.1875 29.1094 36.1875
Q25.0469 36.1875 20.4531 35.125
Q15.875 34.0781 10.5938 31.8906
z
" id="BitstreamVeraSans-Bold-35"/>
    </defs>
    <g transform="translate(344.719418545 297.947170493)scale(0.2 -0.2)">
     <use xlink:href="#BitstreamVeraSans-Bold-35"/>
    </g>
   </g>
   <g id="text_7">
    <g id="patch_9">
     <path d="
M197.559 212.05
L213.159 212.05
L213.159 192.941
L197.559 192.941
z
" style="fill:#ffffff;stroke:#ffffff;"/>
    </g>
    <!-- 6 -->
    <defs>
     <path d="
M36.1875 35.9844
Q31.25 35.9844 28.7812 32.7812
Q26.3125 29.5938 26.3125 23.1875
Q26.3125 16.7969 28.7812 13.5938
Q31.25 10.4062 36.1875 10.4062
Q41.1562 10.4062 43.625 13.5938
Q46.0938 16.7969 46.0938 23.1875
Q46.0938 29.5938 43.625 32.7812
Q41.1562 35.9844 36.1875 35.9844
M59.4219 71
L59.4219 57.5156
Q54.7812 59.7188 50.6719 60.7656
Q46.5781 61.8125 42.6719 61.8125
Q34.2812 61.8125 29.5938 57.1406
Q24.9062 52.4844 24.125 43.3125
Q27.3438 45.7031 31.0938 46.8906
Q34.8594 48.0938 39.3125 48.0938
Q50.4844 48.0938 57.3438 41.5469
Q64.2031 35.0156 64.2031 24.4219
Q64.2031 12.7031 56.5312 5.64062
Q48.875 -1.42188 35.9844 -1.42188
Q21.7812 -1.42188 13.9844 8.17188
Q6.20312 17.7812 6.20312 35.4062
Q6.20312 53.4688 15.3125 63.7969
Q24.4219 74.125 40.2812 74.125
Q45.3125 74.125 50.0469 73.3438
Q54.7812 72.5625 59.4219 71" id="BitstreamVeraSans-Bold-36"/>
    </defs>
    <g transform="translate(199.559199894 209.765897901)scale(0.2 -0.2)">
     <use xlink:href="#BitstreamVeraSans-Bold-36"/>
    </g>
   </g>
   <g id="text_8">
    <g id="patch_10">
     <path d="
M295.134 233.897
L310.122 233.897
L310.122 215.315
L295.134 215.315
z
" style="fill:#ffffff;stroke:#ffffff;"/>
    </g>
    <!-- 7 -->
    <defs>
     <path d="
M6.6875 72.9062
L61.625 72.9062
L61.625 62.3125
L33.2031 0
L14.8906 0
L41.7969 59.0781
L6.6875 59.0781
z
" id="BitstreamVeraSans-Bold-37"/>
    </defs>
    <g transform="translate(297.134158194 231.896687174)scale(0.2 -0.2)">
     <use xlink:href="#BitstreamVeraSans-Bold-37"/>
    </g>
   </g>
   <g id="text_9">
    <g id="patch_11">
     <path d="
M396.768 257.749
L412.221 257.749
L412.221 238.621
L396.768 238.621
z
" style="fill:#ffffff;stroke:#ffffff;"/>
    </g>
    <!-- 8 -->
    <defs>
     <path d="
M34.8125 32.625
Q29.5469 32.625 26.7031 29.7344
Q23.875 26.8594 23.875 21.4844
Q23.875 16.1094 26.7031 13.25
Q29.5469 10.4062 34.8125 10.4062
Q40.0469 10.4062 42.8281 13.25
Q45.6094 16.1094 45.6094 21.4844
Q45.6094 26.9062 42.8281 29.7656
Q40.0469 32.625 34.8125 32.625
M21.0938 38.8125
Q14.4531 40.8281 11.0781 44.9688
Q7.71875 49.125 7.71875 55.3281
Q7.71875 64.5469 14.5938 69.375
Q21.4844 74.2188 34.8125 74.2188
Q48.0469 74.2188 54.9219 69.4062
Q61.8125 64.5938 61.8125 55.3281
Q61.8125 49.125 58.4219 44.9688
Q55.0312 40.8281 48.3906 38.8125
Q55.8125 36.7656 59.5938 32.1562
Q63.375 27.5469 63.375 20.5156
Q63.375 9.67188 56.1719 4.125
Q48.9688 -1.42188 34.8125 -1.42188
Q20.6094 -1.42188 13.3594 4.125
Q6.10938 9.67188 6.10938 20.5156
Q6.10938 27.5469 9.89062 32.1562
Q13.6719 36.7656 21.0938 38.8125
M25.4844 53.4219
Q25.4844 49.0781 27.9062 46.7344
Q30.3281 44.3906 34.8125 44.3906
Q39.2031 44.3906 41.5938 46.7344
Q44 49.0781 44 53.4219
Q44 57.7656 41.5938 60.0781
Q39.2031 62.4062 34.8125 62.4062
Q30.3281 62.4062 27.9062 60.0625
Q25.4844 57.7188 25.4844 53.4219" id="BitstreamVeraSans-Bold-38"/>
    </defs>
    <g transform="translate(398.767893876 255.464429113)scale(0.2 -0.2)">
     <use xlink:href="#BitstreamVeraSans-Bold-38"/>
    </g>
   </g>
   <g id="text_10">
    <g id="patch_12">
     <path d="
M71.238 214.043
L86.8412 214.043
L86.8412 194.933
L71.238 194.933
z
" style="fill:#ffffff;stroke:#ffffff;"/>
    </g>
    <!-- 9 -->
    <defs>
     <path d="
M10.0156 1.60938
L10.0156 15.0938
Q14.5 12.9844 18.5938 11.9375
Q22.7031 10.8906 26.7031 10.8906
Q35.1094 10.8906 39.7969 15.5469
Q44.4844 20.2188 45.3125 29.3906
Q42 26.9531 38.2344 25.7344
Q34.4688 24.5156 30.0781 24.5156
Q18.8906 24.5156 12.0312 31.0312
Q5.17188 37.5469 5.17188 48.1875
Q5.17188 59.9688 12.8125 67.0469
Q20.4531 74.125 33.2969 74.125
Q47.5625 74.125 55.375 64.5
Q63.1875 54.8906 63.1875 37.3125
Q63.1875 19.2344 54.0469 8.90625
Q44.9219 -1.42188 29 -1.42188
Q23.875 -1.42188 19.1875 -0.65625
Q14.5 0.09375 10.0156 1.60938
M33.2031 36.7188
Q38.1406 36.7188 40.625 39.9062
Q43.1094 43.1094 43.1094 49.5156
Q43.1094 55.8594 40.625 59.0781
Q38.1406 62.3125 33.2031 62.3125
Q28.2656 62.3125 25.7812 59.0781
Q23.2969 55.8594 23.2969 49.5156
Q23.2969 43.1094 25.7812 39.9062
Q28.2656 36.7188 33.2031 36.7188" id="BitstreamVeraSans-Bold-39"/>
    </defs>
    <g transform="translate(73.2380416857 211.758326511)scale(0.2 -0.2)">
     <use xlink:href="#BitstreamVeraSans-Bold-39"/>
    </g>
   </g>
   <g id="text_11">
    <g id="patch_13">
     <path d="
M176.108 238.805
L204.727 238.805
L204.727 219.677
L176.108 219.677
z
" style="fill:#ffffff;stroke:#ffffff;"/>
    </g>
    <!-- 10 -->
    <g transform="translate(178.108153403 236.520731494)scale(0.2 -0.2)">
     <use xlink:href="#BitstreamVeraSans-Bold-31"/>
     <use x="69.580078125" xlink:href="#BitstreamVeraSans-Bold-30"/>
    </g>
   </g>
   <g id="text_12">
    <g id="patch_14">
     <path d="
M285.804 264.141
L314.004 264.141
L314.004 245.559
L285.804 245.559
z
" style="fill:#ffffff;stroke:#ffffff;"/>
    </g>
    <!-- 11 -->
    <g transform="translate(287.804077492 262.140516296)scale(0.2 -0.2)">
     <use xlink:href="#BitstreamVeraSans-Bold-31"/>
     <use x="69.580078125" xlink:href="#BitstreamVeraSans-Bold-31"/>
    </g>
   </g>
   <g id="text_13">
    <g id="patch_15">
     <path d="
M136.266 173.401
L164.103 173.401
L164.103 154.557
L136.266 154.557
z
" style="fill:#ffffff;stroke:#ffffff;"/>
    </g>
    <!-- 12 -->
    <g transform="translate(138.265556631 171.400796174)scale(0.2 -0.2)">
     <use xlink:href="#BitstreamVeraSans-Bold-31"/>
     <use x="69.580078125" xlink:href="#BitstreamVeraSans-Bold-32"/>
    </g>
   </g>
   <g id="text_14">
    <g id="patch_16">
     <path d="
M238.611 196.627
L266.596 196.627
L266.596 177.499
L238.611 177.499
z
" style="fill:#ffffff;stroke:#ffffff;"/>
    </g>
    <!-- 13 -->
    <g transform="translate(240.611264362 194.34263338)scale(0.2 -0.2)">
     <use xlink:href="#BitstreamVeraSans-Bold-31"/>
     <use x="69.580078125" xlink:href="#BitstreamVeraSans-Bold-33"/>
    </g>
   </g>
   <g id="text_15">
    <g id="patch_17">
     <path d="
M345.486 220.037
L374.142 220.037
L374.142 201.456
L345.486 201.456
z
" style="fill:#ffffff;stroke:#ffffff;"/>
    </g>
    <!-- 14 -->
    <g transform="translate(347.486123448 218.037226189)scale(0.2 -0.2)">
     <use xlink:href="#BitstreamVeraSans-Bold-31"/>
     <use x="69.580078125" xlink:href="#BitstreamVeraSans-Bold-34"/>
    </g>
   </g>
   <g id="text_16">
    <g id="patch_18">
     <path d="
M196.689 135.905
L224.867 135.905
L224.867 117.04
L196.689 117.04
z
" style="fill:#ffffff;stroke:#ffffff;"/>
    </g>
    <!-- 15 -->
    <g transform="translate(198.688960862 133.620757479)scale(0.2 -0.2)">
     <use xlink:href="#BitstreamVeraSans-Bold-31"/>
     <use x="69.580078125" xlink:href="#BitstreamVeraSans-Bold-35"/>
    </g>
   </g>
   <g id="text_17">
    <g id="patch_19">
     <path d="
M296.597 157.479
L325.097 157.479
L325.097 138.369
L296.597 138.369
z
" style="fill:#ffffff;stroke:#ffffff;"/>
    </g>
    <!-- 16 -->
    <g transform="translate(298.596661525 155.194410732)scale(0.2 -0.2)">
     <use xlink:href="#BitstreamVeraSans-Bold-31"/>
     <use x="69.580078125" xlink:href="#BitstreamVeraSans-Bold-36"/>
    </g>
   </g>
   <g id="text_18">
    <g id="patch_20">
     <path d="
M400.762 179.19
L428.747 179.19
L428.747 160.608
L400.762 160.608
z
" style="fill:#ffffff;stroke:#ffffff;"/>
    </g>
    <!-- 17 -->
    <g transform="translate(402.762434316 177.189645727)scale(0.2 -0.2)">
     <use xlink:href="#BitstreamVeraSans-Bold-31"/>
     <use x="69.580078125" xlink:href="#BitstreamVeraSans-Bold-37"/>
    </g>
   </g>
   <g id="text_19">
    <g id="patch_21">
     <path d="
M66.985 130.3
L95.3194 130.3
L95.3194 111.172
L66.985 111.172
z
" style="fill:#ffffff;stroke:#ffffff;"/>
    </g>
    <!-- 18 -->
    <g transform="translate(68.9850184146 128.015319885)scale(0.2 -0.2)">
     <use xlink:href="#BitstreamVeraSans-Bold-31"/>
     <use x="69.580078125" xlink:href="#BitstreamVeraSans-Bold-38"/>
    </g>
   </g>
   <g id="text_20">
    <g id="patch_22">
     <path d="
M174.553 153.75
L202.85 153.75
L202.85 134.641
L174.553 134.641
z
" style="fill:#ffffff;stroke:#ffffff;"/>
    </g>
    <!-- 19 -->
    <g transform="translate(176.553061528 151.465842875)scale(0.2 -0.2)">
     <use xlink:href="#BitstreamVeraSans-Bold-31"/>
     <use x="69.580078125" xlink:href="#BitstreamVeraSans-Bold-39"/>
    </g>
   </g>
   <g id="text_21">
    <g id="patch_23">
     <path d="
M287.206 178.348
L316.5 178.348
L316.5 159.22
L287.206 159.22
z
" style="fill:#ffffff;stroke:#ffffff;"/>
    </g>
    <!-- 20 -->
    <g transform="translate(289.206167543 176.063328545)scale(0.2 -0.2)">
     <use xlink:href="#BitstreamVeraSans-Bold-32"/>
     <use x="69.580078125" xlink:href="#BitstreamVeraSans-Bold-30"/>
    </g>
   </g>
   <g id="text_22">
    <g id="patch_24">
     <path d="
M133.803 91.7776
L162.678 91.7776
L162.678 72.9338
L133.803 72.9338
z
" style="fill:#ffffff;stroke:#ffffff;"/>
    </g>
    <!-- 21 -->
    <g transform="translate(135.80346816 89.7775746375)scale(0.2 -0.2)">
     <use xlink:href="#BitstreamVeraSans-Bold-32"/>
     <use x="69.580078125" xlink:href="#BitstreamVeraSans-Bold-31"/>
    </g>
   </g>
   <g id="text_23">
    <g id="patch_25">
     <path d="
M238.718 113.495
L267.231 113.495
L267.231 94.6516
L238.718 94.6516
z
" style="fill:#ffffff;stroke:#ffffff;"/>
    </g>
    <!-- 22 -->
    <g transform="translate(240.718399177 111.495325015)scale(0.2 -0.2)">
     <use xlink:href="#BitstreamVeraSans-Bold-32"/>
     <use x="69.580078125" xlink:href="#BitstreamVeraSans-Bold-32"/>
    </g>
   </g>
   <g id="text_24">
    <g id="patch_26">
     <path d="
M348.398 136.484
L377.057 136.484
L377.057 117.356
L348.398 117.356
z
" style="fill:#ffffff;stroke:#ffffff;"/>
    </g>
    <!-- 23 -->
    <g transform="translate(350.397912422 134.199360248)scale(0.2 -0.2)">
     <use xlink:href="#BitstreamVeraSans-Bold-32"/>
     <use x="69.580078125" xlink:href="#BitstreamVeraSans-Bold-33"/>
    </g>
   </g>
   <g id="text_25">
    <g id="patch_27">
     <path d="
M195.777 56.3126
L225.108 56.3126
L225.108 37.4688
L195.777 37.4688
z
" style="fill:#ffffff;stroke:#ffffff;"/>
    </g>
    <!-- 24 -->
    <g transform="translate(197.776652218 54.3125970276)scale(0.2 -0.2)">
     <use xlink:href="#BitstreamVeraSans-Bold-32"/>
     <use x="69.580078125" xlink:href="#BitstreamVeraSans-Bold-34"/>
    </g>
   </g>
   <g id="text_26">
    <g id="patch_28">
     <path d="
M298.131 76.7522
L326.985 76.7522
L326.985 57.6241
L298.131 57.6241
z
" style="fill:#ffffff;stroke:#ffffff;"/>
    </g>
    <!-- 25 -->
    <g transform="translate(300.131377687 74.4678332416)scale(0.2 -0.2)">
     <use xlink:href="#BitstreamVeraSans-Bold-32"/>
     <use x="69.580078125" xlink:href="#BitstreamVeraSans-Bold-35"/>
    </g>
   </g>
   <g id="text_27">
    <g id="patch_29">
     <path d="
M404.959 97.7881
L434.134 97.7881
L434.134 78.66
L404.959 78.66
z
" style="fill:#ffffff;stroke:#ffffff;"/>
    </g>
    <!-- 26 -->
    <g transform="translate(406.958519034 95.5037576512)scale(0.2 -0.2)">
     <use xlink:href="#BitstreamVeraSans-Bold-32"/>
     <use x="69.580078125" xlink:href="#BitstreamVeraSans-Bold-36"/>
    </g>
   </g>
   <g id="Poly3DCollection_5">
    <defs>
     <path d="
M294.576 -223.654
L194.738 -244.904
L193.73 -324.581
L296.012 -304.509
z
" id="C4_0_30da439082"/>
    </defs>
    <g clip-path="url(#p5bee155178)">
     <use style="fill:none;stroke:#808080;stroke-dasharray:1.000000,3.000000;stroke-dashoffset:0.0;stroke-linecap:butt;" x="0" xlink:href="#C4_0_30da439082" y="360.0"/>
    </g>
   </g>
   <g id="Poly3DCollection_6">
    <defs>
     <path d="
M236.432 -105.752
L340.568 -80.7754
L394.773 -123.377
L293.208 -146.604
z
" id="C5_0_2ef0fa95e1"/>
    </defs>
    <g clip-path="url(#p5bee155178)">
     <use style="fill:none;stroke:#808080;stroke-dasharray:1.000000,3.000000;stroke-dashoffset:0.0;stroke-linecap:butt;" x="0" xlink:href="#C5_0_2ef0fa95e1" y="360.0"/>
    </g>
   </g>
   <g id="Poly3DCollection_7">
    <defs>
     <path d="
M134.162 -207.527
L236.432 -184.67
L294.576 -223.654
L194.738 -244.904
z
" id="C6_0_a806788bc5"/>
    </defs>
    <g clip-path="url(#p5bee155178)">
     <use style="fill:none;stroke:#808080;stroke-dasharray:1.000000,3.000000;stroke-dashoffset:0.0;stroke-linecap:butt;" x="0" xlink:href="#C6_0_a806788bc5" y="360.0"/>
    </g>
   </g>
   <g id="Poly3DCollection_8">
    <defs>
     <path d="
M236.432 -105.752
L293.208 -146.604
L294.576 -223.654
L236.432 -184.67
z
" id="C7_0_3fdad7ff7c"/>
    </defs>
    <g clip-path="url(#p5bee155178)">
     <use style="fill:none;stroke:#808080;stroke-dasharray:1.000000,3.000000;stroke-dashoffset:0.0;stroke-linecap:butt;" x="0" xlink:href="#C7_0_3fdad7ff7c" y="360.0"/>
    </g>
   </g>
   <g id="Poly3DCollection_9">
    <defs>
     <path d="
M134.162 -207.527
L236.432 -184.67
L294.576 -223.654
L194.738 -244.904
z
" id="C8_0_a806788bc5"/>
    </defs>
    <g clip-path="url(#p5bee155178)">
     <use style="fill:none;stroke:#808080;stroke-dasharray:1.000000,3.000000;stroke-dashoffset:0.0;stroke-linecap:butt;" x="0" xlink:href="#C8_0_a806788bc5" y="360.0"/>
    </g>
   </g>
   <g id="Poly3DCollection_10">
    <defs>
     <path d="
M236.432 -105.752
L293.208 -146.604
L294.576 -223.654
L236.432 -184.67
z
" id="C9_0_3fdad7ff7c"/>
    </defs>
    <g clip-path="url(#p5bee155178)">
     <use style="fill:none;stroke:#808080;stroke-dasharray:1.000000,3.000000;stroke-dashoffset:0.0;stroke-linecap:butt;" x="0" xlink:href="#C9_0_3fdad7ff7c" y="360.0"/>
    </g>
   </g>
   <g id="Poly3DCollection_11">
    <defs>
     <path d="
M236.432 -105.752
L136.605 -129.695
L134.162 -207.527
L236.432 -184.67
z
" id="Ca_0_f8f4a7cd2e"/>
    </defs>
    <g clip-path="url(#p5bee155178)">
     <use style="fill:none;stroke:#808080;stroke-dasharray:1.000000,3.000000;stroke-dashoffset:0.0;stroke-linecap:butt;" x="0" xlink:href="#Ca_0_f8f4a7cd2e" y="360.0"/>
    </g>
   </g>
   <g id="Poly3DCollection_12">
    <defs>
     <path d="
M236.432 -105.752
L136.605 -129.695
L134.162 -207.527
L236.432 -184.67
z
" id="Cb_0_f8f4a7cd2e"/>
    </defs>
    <g clip-path="url(#p5bee155178)">
     <use style="fill:none;stroke:#808080;stroke-dasharray:1.000000,3.000000;stroke-dashoffset:0.0;stroke-linecap:butt;" x="0" xlink:href="#Cb_0_f8f4a7cd2e" y="360.0"/>
    </g>
   </g>
   <g id="Poly3DCollection_13">
    <defs>
     <path d="
M194.738 -244.904
L134.162 -207.527
L131.597 -289.263
L193.73 -324.581
z
" id="Cc_0_930ec0dde7"/>
    </defs>
    <g clip-path="url(#p5bee155178)">
     <use style="fill:none;stroke:#808080;stroke-dasharray:1.000000,3.000000;stroke-dashoffset:0.0;stroke-linecap:butt;" x="0" xlink:href="#Cc_0_930ec0dde7" y="360.0"/>
    </g>
   </g>
   <g id="Poly3DCollection_14">
    <defs>
     <path d="
M398.67 -201.498
L294.576 -223.654
L296.012 -304.509
L402.764 -283.561
z
" id="Cd_0_7e9695bf4c"/>
    </defs>
    <g clip-path="url(#p5bee155178)">
     <use style="fill:none;stroke:#808080;stroke-dasharray:1.000000,3.000000;stroke-dashoffset:0.0;stroke-linecap:butt;" x="0" xlink:href="#Cd_0_7e9695bf4c" y="360.0"/>
    </g>
   </g>
   <g id="Poly3DCollection_15">
    <defs>
     <path d="
M73.1177 -87.5729
L175.345 -61.7972
L236.432 -105.752
L136.605 -129.695
z
" id="Ce_0_47a3c3b8a5"/>
    </defs>
    <g clip-path="url(#p5bee155178)">
     <use style="fill:none;stroke:#808080;stroke-dasharray:1.000000,3.000000;stroke-dashoffset:0.0;stroke-linecap:butt;" x="0" xlink:href="#Ce_0_47a3c3b8a5" y="360.0"/>
    </g>
   </g>
   <g id="Poly3DCollection_16">
    <defs>
     <path d="
M136.605 -129.695
L73.1177 -87.5729
L68.9691 -167.301
L134.162 -207.527
z
" id="Cf_0_e49a41b63f"/>
    </defs>
    <g clip-path="url(#p5bee155178)">
     <use style="fill:none;stroke:#808080;stroke-dasharray:1.000000,3.000000;stroke-dashoffset:0.0;stroke-linecap:butt;" x="0" xlink:href="#Cf_0_e49a41b63f" y="360.0"/>
    </g>
   </g>
   <g id="Poly3DCollection_17">
    <defs>
     <path d="
M236.432 -184.67
L343.229 -160.802
L398.67 -201.498
L294.576 -223.654
z
" id="C10_0_1be6e07844"/>
    </defs>
    <g clip-path="url(#p5bee155178)">
     <use style="fill:none;stroke:#808080;stroke-dasharray:1.000000,3.000000;stroke-dashoffset:0.0;stroke-linecap:butt;" x="0" xlink:href="#C10_0_1be6e07844" y="360.0"/>
    </g>
   </g>
   <g id="Poly3DCollection_18">
    <defs>
     <path d="
M236.432 -184.67
L343.229 -160.802
L398.67 -201.498
L294.576 -223.654
z
" id="C11_0_1be6e07844"/>
    </defs>
    <g clip-path="url(#p5bee155178)">
     <use style="fill:none;stroke:#808080;stroke-dasharray:1.000000,3.000000;stroke-dashoffset:0.0;stroke-linecap:butt;" x="0" xlink:href="#C11_0_1be6e07844" y="360.0"/>
    </g>
   </g>
   <g id="Poly3DCollection_19">
    <defs>
     <path d="
M340.568 -80.7754
L394.773 -123.377
L398.67 -201.498
L343.229 -160.802
z
" id="C12_0_8787c0fe56"/>
    </defs>
    <g clip-path="url(#p5bee155178)">
     <use style="fill:none;stroke:#000000;stroke-linecap:butt;stroke-width:2.0;" x="0" xlink:href="#C12_0_8787c0fe56" y="360.0"/>
    </g>
   </g>
   <g id="Poly3DCollection_20">
    <defs>
     <path d="
M340.568 -80.7754
L236.432 -105.752
L236.432 -184.67
L343.229 -160.802
z
" id="C13_0_b64f8c9d94"/>
    </defs>
    <g clip-path="url(#p5bee155178)">
     <use style="fill:none;stroke:#808080;stroke-dasharray:1.000000,3.000000;stroke-dashoffset:0.0;stroke-linecap:butt;" x="0" xlink:href="#C13_0_b64f8c9d94" y="360.0"/>
    </g>
   </g>
   <g id="Poly3DCollection_21">
    <defs>
     <path d="
M340.568 -80.7754
L236.432 -105.752
L236.432 -184.67
L343.229 -160.802
z
" id="C14_0_b64f8c9d94"/>
    </defs>
    <g clip-path="url(#p5bee155178)">
     <use style="fill:none;stroke:#808080;stroke-dasharray:1.000000,3.000000;stroke-dashoffset:0.0;stroke-linecap:butt;" x="0" xlink:href="#C14_0_b64f8c9d94" y="360.0"/>
    </g>
   </g>
   <g id="Poly3DCollection_22">
    <defs>
     <path d="
M236.432 -184.67
L294.576 -223.654
L296.012 -304.509
L236.432 -267.636
z
" id="C15_0_1d6d529d92"/>
    </defs>
    <g clip-path="url(#p5bee155178)">
     <use style="fill:none;stroke:#808080;stroke-dasharray:1.000000,3.000000;stroke-dashoffset:0.0;stroke-linecap:butt;" x="0" xlink:href="#C15_0_1d6d529d92" y="360.0"/>
    </g>
   </g>
   <g id="Poly3DCollection_23">
    <defs>
     <path d="
M131.597 -289.263
L236.432 -267.636
L296.012 -304.509
L193.73 -324.581
z
" id="C16_0_7ef45871e8"/>
    </defs>
    <g clip-path="url(#p5bee155178)">
     <use style="fill:none;stroke:#000000;stroke-linecap:butt;stroke-width:2.0;" x="0" xlink:href="#C16_0_7ef45871e8" y="360.0"/>
    </g>
   </g>
   <g id="Poly3DCollection_24">
    <defs>
     <path d="
M236.432 -184.67
L294.576 -223.654
L296.012 -304.509
L236.432 -267.636
z
" id="C17_0_1d6d529d92"/>
    </defs>
    <g clip-path="url(#p5bee155178)">
     <use style="fill:none;stroke:#808080;stroke-dasharray:1.000000,3.000000;stroke-dashoffset:0.0;stroke-linecap:butt;" x="0" xlink:href="#C17_0_1d6d529d92" y="360.0"/>
    </g>
   </g>
   <g id="Poly3DCollection_25">
    <defs>
     <path d="
M236.432 -184.67
L134.162 -207.527
L131.597 -289.263
L236.432 -267.636
z
" id="C18_0_67e29bab83"/>
    </defs>
    <g clip-path="url(#p5bee155178)">
     <use style="fill:none;stroke:#808080;stroke-dasharray:1.000000,3.000000;stroke-dashoffset:0.0;stroke-linecap:butt;" x="0" xlink:href="#C18_0_67e29bab83" y="360.0"/>
    </g>
   </g>
   <g id="Poly3DCollection_26">
    <defs>
     <path d="
M236.432 -184.67
L134.162 -207.527
L131.597 -289.263
L236.432 -267.636
z
" id="C19_0_67e29bab83"/>
    </defs>
    <g clip-path="url(#p5bee155178)">
     <use style="fill:none;stroke:#808080;stroke-dasharray:1.000000,3.000000;stroke-dashoffset:0.0;stroke-linecap:butt;" x="0" xlink:href="#C19_0_67e29bab83" y="360.0"/>
    </g>
   </g>
   <g id="Poly3DCollection_27">
    <defs>
     <path d="
M175.345 -61.7972
L282.154 -34.8658
L340.568 -80.7754
L236.432 -105.752
z
" id="C1a_0_3f84362257"/>
    </defs>
    <g clip-path="url(#p5bee155178)">
     <use style="fill:none;stroke:#808080;stroke-dasharray:1.000000,3.000000;stroke-dashoffset:0.0;stroke-linecap:butt;" x="0" xlink:href="#C1a_0_3f84362257" y="360.0"/>
    </g>
   </g>
   <g id="Poly3DCollection_28">
    <defs>
     <path d="
M68.9691 -167.301
L173.758 -142.649
L236.432 -184.67
L134.162 -207.527
z
" id="C1b_0_a144a2e8ba"/>
    </defs>
    <g clip-path="url(#p5bee155178)">
     <use style="fill:none;stroke:#808080;stroke-dasharray:1.000000,3.000000;stroke-dashoffset:0.0;stroke-linecap:butt;" x="0" xlink:href="#C1b_0_a144a2e8ba" y="360.0"/>
    </g>
   </g>
   <g id="Poly3DCollection_29">
    <defs>
     <path d="
M175.345 -61.7972
L236.432 -105.752
L236.432 -184.67
L173.758 -142.649
z
" id="C1c_0_d8a7dd0e01"/>
    </defs>
    <g clip-path="url(#p5bee155178)">
     <use style="fill:none;stroke:#808080;stroke-dasharray:1.000000,3.000000;stroke-dashoffset:0.0;stroke-linecap:butt;" x="0" xlink:href="#C1c_0_d8a7dd0e01" y="360.0"/>
    </g>
   </g>
   <g id="Poly3DCollection_30">
    <defs>
     <path d="
M68.9691 -167.301
L173.758 -142.649
L236.432 -184.67
L134.162 -207.527
z
" id="C1d_0_a144a2e8ba"/>
    </defs>
    <g clip-path="url(#p5bee155178)">
     <use style="fill:none;stroke:#808080;stroke-dasharray:1.000000,3.000000;stroke-dashoffset:0.0;stroke-linecap:butt;" x="0" xlink:href="#C1d_0_a144a2e8ba" y="360.0"/>
    </g>
   </g>
   <g id="Poly3DCollection_31">
    <defs>
     <path d="
M175.345 -61.7972
L236.432 -105.752
L236.432 -184.67
L173.758 -142.649
z
" id="C1e_0_d8a7dd0e01"/>
    </defs>
    <g clip-path="url(#p5bee155178)">
     <use style="fill:none;stroke:#808080;stroke-dasharray:1.000000,3.000000;stroke-dashoffset:0.0;stroke-linecap:butt;" x="0" xlink:href="#C1e_0_d8a7dd0e01" y="360.0"/>
    </g>
   </g>
   <g id="Poly3DCollection_32">
    <defs>
     <path d="
M73.1177 -87.5729
L175.345 -61.7972
L173.758 -142.649
L68.9691 -167.301
z
" id="C1f_0_9ab0f224b6"/>
    </defs>
    <g clip-path="url(#p5bee155178)">
     <use style="fill:none;stroke:#000000;stroke-linecap:butt;stroke-width:2.0;" x="0" xlink:href="#C1f_0_9ab0f224b6" y="360.0"/>
    </g>
   </g>
   <g id="Poly3DCollection_33">
    <defs>
     <path d="
M134.162 -207.527
L68.9691 -167.301
L64.6042 -251.184
L131.597 -289.263
z
" id="C20_0_07f4377575"/>
    </defs>
    <g clip-path="url(#p5bee155178)">
     <use style="fill:none;stroke:#808080;stroke-dasharray:1.000000,3.000000;stroke-dashoffset:0.0;stroke-linecap:butt;" x="0" xlink:href="#C20_0_07f4377575" y="360.0"/>
    </g>
   </g>
   <g id="Poly3DCollection_34">
    <defs>
     <path d="
M236.432 -267.636
L346.03 -245.026
L402.764 -283.561
L296.012 -304.509
z
" id="C21_0_3742b42c6b"/>
    </defs>
    <g clip-path="url(#p5bee155178)">
     <use style="fill:none;stroke:#000000;stroke-linecap:butt;stroke-width:2.0;" x="0" xlink:href="#C21_0_3742b42c6b" y="360.0"/>
    </g>
   </g>
   <g id="Poly3DCollection_35">
    <defs>
     <path d="
M343.229 -160.802
L398.67 -201.498
L402.764 -283.561
L346.03 -245.026
z
" id="C22_0_bb6ba394a4"/>
    </defs>
    <g clip-path="url(#p5bee155178)">
     <use style="fill:none;stroke:#000000;stroke-linecap:butt;stroke-width:2.0;" x="0" xlink:href="#C22_0_bb6ba394a4" y="360.0"/>
    </g>
   </g>
   <g id="Poly3DCollection_36">
    <defs>
     <path d="
M343.229 -160.802
L236.432 -184.67
L236.432 -267.636
L346.03 -245.026
z
" id="C23_0_3c13941e55"/>
    </defs>
    <g clip-path="url(#p5bee155178)">
     <use style="fill:none;stroke:#808080;stroke-dasharray:1.000000,3.000000;stroke-dashoffset:0.0;stroke-linecap:butt;" x="0" xlink:href="#C23_0_3c13941e55" y="360.0"/>
    </g>
   </g>
   <g id="Poly3DCollection_37">
    <defs>
     <path d="
M343.229 -160.802
L236.432 -184.67
L236.432 -267.636
L346.03 -245.026
z
" id="C24_0_3c13941e55"/>
    </defs>
    <g clip-path="url(#p5bee155178)">
     <use style="fill:none;stroke:#808080;stroke-dasharray:1.000000,3.000000;stroke-dashoffset:0.0;stroke-linecap:butt;" x="0" xlink:href="#C24_0_3c13941e55" y="360.0"/>
    </g>
   </g>
   <g id="Poly3DCollection_38">
    <defs>
     <path d="
M173.758 -142.649
L283.369 -116.862
L343.229 -160.802
L236.432 -184.67
z
" id="C25_0_e83405d995"/>
    </defs>
    <g clip-path="url(#p5bee155178)">
     <use style="fill:none;stroke:#808080;stroke-dasharray:1.000000,3.000000;stroke-dashoffset:0.0;stroke-linecap:butt;" x="0" xlink:href="#C25_0_e83405d995" y="360.0"/>
    </g>
   </g>
   <g id="Poly3DCollection_39">
    <defs>
     <path d="
M173.758 -142.649
L283.369 -116.862
L343.229 -160.802
L236.432 -184.67
z
" id="C26_0_e83405d995"/>
    </defs>
    <g clip-path="url(#p5bee155178)">
     <use style="fill:none;stroke:#808080;stroke-dasharray:1.000000,3.000000;stroke-dashoffset:0.0;stroke-linecap:butt;" x="0" xlink:href="#C26_0_e83405d995" y="360.0"/>
    </g>
   </g>
   <g id="Poly3DCollection_40">
    <defs>
     <path d="
M282.154 -34.8658
L340.568 -80.7754
L343.229 -160.802
L283.369 -116.862
z
" id="C27_0_69fdf9d63a"/>
    </defs>
    <g clip-path="url(#p5bee155178)">
     <use style="fill:none;stroke:#000000;stroke-linecap:butt;stroke-width:2.0;" x="0" xlink:href="#C27_0_69fdf9d63a" y="360.0"/>
    </g>
   </g>
   <g id="Poly3DCollection_41">
    <defs>
     <path d="
M175.345 -61.7972
L282.154 -34.8658
L283.369 -116.862
L173.758 -142.649
z
" id="C28_0_21f9ad7a8d"/>
    </defs>
    <g clip-path="url(#p5bee155178)">
     <use style="fill:none;stroke:#000000;stroke-linecap:butt;stroke-width:2.0;" x="0" xlink:href="#C28_0_21f9ad7a8d" y="360.0"/>
    </g>
   </g>
   <g id="Poly3DCollection_42">
    <defs>
     <path d="
M173.758 -142.649
L236.432 -184.67
L236.432 -267.636
L172.086 -227.812
z
" id="C29_0_5787ddeb54"/>
    </defs>
    <g clip-path="url(#p5bee155178)">
     <use style="fill:none;stroke:#808080;stroke-dasharray:1.000000,3.000000;stroke-dashoffset:0.0;stroke-linecap:butt;" x="0" xlink:href="#C29_0_5787ddeb54" y="360.0"/>
    </g>
   </g>
   <g id="Poly3DCollection_43">
    <defs>
     <path d="
M64.6042 -251.184
L172.086 -227.812
L236.432 -267.636
L131.597 -289.263
z
" id="C2a_0_d37f10115b"/>
    </defs>
    <g clip-path="url(#p5bee155178)">
     <use style="fill:none;stroke:#000000;stroke-linecap:butt;stroke-width:2.0;" x="0" xlink:href="#C2a_0_d37f10115b" y="360.0"/>
    </g>
   </g>
   <g id="Poly3DCollection_44">
    <defs>
     <path d="
M173.758 -142.649
L236.432 -184.67
L236.432 -267.636
L172.086 -227.812
z
" id="C2b_0_5787ddeb54"/>
    </defs>
    <g clip-path="url(#p5bee155178)">
     <use style="fill:none;stroke:#808080;stroke-dasharray:1.000000,3.000000;stroke-dashoffset:0.0;stroke-linecap:butt;" x="0" xlink:href="#C2b_0_5787ddeb54" y="360.0"/>
    </g>
   </g>
   <g id="Poly3DCollection_45">
    <defs>
     <path d="
M68.9691 -167.301
L173.758 -142.649
L172.086 -227.812
L64.6042 -251.184
z
" id="C2c_0_7a8031fe8c"/>
    </defs>
    <g clip-path="url(#p5bee155178)">
     <use style="fill:none;stroke:#000000;stroke-linecap:butt;stroke-width:2.0;" x="0" xlink:href="#C2c_0_7a8031fe8c" y="360.0"/>
    </g>
   </g>
   <g id="Poly3DCollection_46">
    <defs>
     <path d="
M172.086 -227.812
L284.65 -203.335
L346.03 -245.026
L236.432 -267.636
z
" id="C2d_0_f620725e11"/>
    </defs>
    <g clip-path="url(#p5bee155178)">
     <use style="fill:none;stroke:#000000;stroke-linecap:butt;stroke-width:2.0;" x="0" xlink:href="#C2d_0_f620725e11" y="360.0"/>
    </g>
   </g>
   <g id="Poly3DCollection_47">
    <defs>
     <path d="
M283.369 -116.862
L343.229 -160.802
L346.03 -245.026
L284.65 -203.335
z
" id="C2e_0_a9f76b44ef"/>
    </defs>
    <g clip-path="url(#p5bee155178)">
     <use style="fill:none;stroke:#000000;stroke-linecap:butt;stroke-width:2.0;" x="0" xlink:href="#C2e_0_a9f76b44ef" y="360.0"/>
    </g>
   </g>
   <g id="Poly3DCollection_48">
    <defs>
     <path d="
M173.758 -142.649
L283.369 -116.862
L284.65 -203.335
L172.086 -227.812
z
" id="C2f_0_4e470c7cfd"/>
    </defs>
    <g clip-path="url(#p5bee155178)">
     <use style="fill:none;stroke:#000000;stroke-linecap:butt;stroke-width:2.0;" x="0" xlink:href="#C2f_0_4e470c7cfd" y="360.0"/>
    </g>
   </g>
   <g id="Patch3DCollection_1">
    <defs>
     <path d="
M0 3.87298
C1.02713 3.87298 2.01232 3.4649 2.73861 2.73861
C3.4649 2.01232 3.87298 1.02713 3.87298 0
C3.87298 -1.02713 3.4649 -2.01232 2.73861 -2.73861
C2.01232 -3.4649 1.02713 -3.87298 0 -3.87298
C-1.02713 -3.87298 -2.01232 -3.4649 -2.73861 -2.73861
C-3.4649 -2.01232 -3.87298 -1.02713 -3.87298 0
C-3.87298 1.02713 -3.4649 2.01232 -2.73861 2.73861
C-2.01232 3.4649 -1.02713 3.87298 0 3.87298
z
" id="C30_0_5009dfc2f8"/>
    </defs>
    <g clip-path="url(#p5bee155178)">
     <use style="opacity:0.583100059393;stroke:#000000;stroke-linecap:butt;" x="73.1177465423" xlink:href="#C30_0_5009dfc2f8" y="272.427057065"/>
    </g>
    <g clip-path="url(#p5bee155178)">
     <use style="opacity:0.672822661778;stroke:#000000;stroke-linecap:butt;" x="175.344509066" xlink:href="#C30_0_5009dfc2f8" y="298.20282431"/>
    </g>
    <g clip-path="url(#p5bee155178)">
     <use style="opacity:0.766567736806;stroke:#000000;stroke-linecap:butt;" x="282.154334773" xlink:href="#C30_0_5009dfc2f8" y="325.134179064"/>
    </g>
    <g clip-path="url(#p5bee155178)">
     <use style="opacity:0.436478493947;stroke:#000000;stroke-linecap:butt;" x="136.604666453" xlink:href="#C30_0_5009dfc2f8" y="230.305192077"/>
    </g>
    <g clip-path="url(#p5bee155178)">
     <use style="opacity:0.519821537697;stroke:#000000;stroke-linecap:butt;" x="236.432432432" xlink:href="#C30_0_5009dfc2f8" y="254.248221371"/>
    </g>
    <g clip-path="url(#p5bee155178)">
     <use style="opacity:0.606761394065;stroke:#000000;stroke-linecap:butt;" x="340.568437613" xlink:href="#C30_0_5009dfc2f8" y="279.224553337"/>
    </g>
    <g clip-path="url(#p5bee155178)">
     <use style="opacity:0.3;stroke:#000000;stroke-linecap:butt;" x="195.699651481" xlink:href="#C30_0_5009dfc2f8" y="191.09725784"/>
    </g>
    <g clip-path="url(#p5bee155178)">
     <use style="opacity:0.377620492963;stroke:#000000;stroke-linecap:butt;" x="293.208267091" xlink:href="#C30_0_5009dfc2f8" y="213.396296286"/>
    </g>
    <g clip-path="url(#p5bee155178)">
     <use style="opacity:0.458470142855;stroke:#000000;stroke-linecap:butt;" x="394.773422535" xlink:href="#C30_0_5009dfc2f8" y="236.623016221"/>
    </g>
    <g clip-path="url(#p5bee155178)">
     <use style="opacity:0.687055388399;stroke:#000000;stroke-linecap:butt;" x="68.9691264006" xlink:href="#C30_0_5009dfc2f8" y="192.699403644"/>
    </g>
    <g clip-path="url(#p5bee155178)">
     <use style="opacity:0.78144683645;stroke:#000000;stroke-linecap:butt;" x="173.757809758" xlink:href="#C30_0_5009dfc2f8" y="217.35126424"/>
    </g>
    <g clip-path="url(#p5bee155178)">
     <use style="opacity:0.880182518284;stroke:#000000;stroke-linecap:butt;" x="283.369245045" xlink:href="#C30_0_5009dfc2f8" y="243.137692085"/>
    </g>
    <g clip-path="url(#p5bee155178)">
     <use style="opacity:0.533030251013;stroke:#000000;stroke-linecap:butt;" x="134.161860602" xlink:href="#C30_0_5009dfc2f8" y="152.473235984"/>
    </g>
    <g clip-path="url(#p5bee155178)">
     <use style="opacity:0.620547277717;stroke:#000000;stroke-linecap:butt;" x="236.432432432" xlink:href="#C30_0_5009dfc2f8" y="175.32972973"/>
    </g>
    <g clip-path="url(#p5bee155178)">
     <use style="opacity:0.711937765738;stroke:#000000;stroke-linecap:butt;" x="343.229450359" xlink:href="#C30_0_5009dfc2f8" y="199.197840845"/>
    </g>
    <g clip-path="url(#p5bee155178)">
     <use style="opacity:0.38991185807;stroke:#000000;stroke-linecap:butt;" x="194.738202288" xlink:href="#C30_0_5009dfc2f8" y="115.095541878"/>
    </g>
    <g clip-path="url(#p5bee155178)">
     <use style="opacity:0.471279012386;stroke:#000000;stroke-linecap:butt;" x="294.576359492" xlink:href="#C30_0_5009dfc2f8" y="136.34589651"/>
    </g>
    <g clip-path="url(#p5bee155178)">
     <use style="opacity:0.556114497004;stroke:#000000;stroke-linecap:butt;" x="398.67018606" xlink:href="#C30_0_5009dfc2f8" y="158.502061962"/>
    </g>
    <g clip-path="url(#p5bee155178)">
     <use style="opacity:0.796429852064;stroke:#000000;stroke-linecap:butt;" x="64.6042409513" xlink:href="#C30_0_5009dfc2f8" y="108.815591092"/>
    </g>
    <g clip-path="url(#p5bee155178)">
     <use style="opacity:0.895864300438;stroke:#000000;stroke-linecap:butt;" x="172.086486486" xlink:href="#C30_0_5009dfc2f8" y="132.187620966"/>
    </g>
    <g clip-path="url(#p5bee155178)">
     <use style="stroke:#000000;stroke-linecap:butt;" x="284.650482289" xlink:href="#C30_0_5009dfc2f8" y="156.664678173"/>
    </g>
    <g clip-path="url(#p5bee155178)">
     <use style="opacity:0.634425819624;stroke:#000000;stroke-linecap:butt;" x="131.596503991" xlink:href="#C30_0_5009dfc2f8" y="70.7366039015"/>
    </g>
    <g clip-path="url(#p5bee155178)">
     <use style="opacity:0.726438440302;stroke:#000000;stroke-linecap:butt;" x="236.432432432" xlink:href="#C30_0_5009dfc2f8" y="92.3641359535"/>
    </g>
    <g clip-path="url(#p5bee155178)">
     <use style="opacity:0.822630287919;stroke:#000000;stroke-linecap:butt;" x="346.030024363" xlink:href="#C30_0_5009dfc2f8" y="114.973993733"/>
    </g>
    <g clip-path="url(#p5bee155178)">
     <use style="opacity:0.484170851606;stroke:#000000;stroke-linecap:butt;" x="193.730268126" xlink:href="#C30_0_5009dfc2f8" y="35.419229906"/>
    </g>
    <g clip-path="url(#p5bee155178)">
     <use style="opacity:0.56956264388;stroke:#000000;stroke-linecap:butt;" x="296.012012012" xlink:href="#C30_0_5009dfc2f8" y="55.4905387196"/>
    </g>
    <g clip-path="url(#p5bee155178)">
     <use style="opacity:0.658686156836;stroke:#000000;stroke-linecap:butt;" x="402.76358712" xlink:href="#C30_0_5009dfc2f8" y="76.4389870831"/>
    </g>
   </g>
  </g>
 </g>
 <defs>
  <clipPath id="p5bee155178">
   <rect height="345.6" width="446.4" x="7.2" y="7.2"/>
  </clipPath>
 </defs>
</svg>
